<?xml version="1.0" encoding="UTF-8"?>
<!--Generator: Apple Native CoreSVG 341-->
<!DOCTYPE svg
        PUBLIC "-//W3C//DTD SVG 1.1//EN"
        "http://www.w3.org/Graphics/SVG/1.1/DTD/svg11.dtd">
<svg version="1.1" xmlns="http://www.w3.org/2000/svg"
     viewBox="0 0 24.2578 23.918">
    <g>
        <rect height="23.918" opacity="0" width="24.2578" x="0" y="0"/>
        <path d="M23.9062 11.9531C23.9062 18.5391 18.5508 23.9062 11.9531 23.9062C5.36719 23.9062 0 18.5391 0 11.9531C0 5.35547 5.36719 0 11.9531 0C18.5508 0 23.9062 5.35547 23.9062 11.9531ZM11.2734 6.66797L9.09375 8.14453C8.83594 8.34375 8.71875 8.51953 8.71875 8.82422C8.71875 9.19922 9.02344 9.55078 9.41016 9.55078C9.59766 9.55078 9.72656 9.52734 10.0078 9.33984L11.5664 8.30859L11.6484 8.30859L11.6484 16.6172C11.6484 17.2969 12 17.707 12.6094 17.707C13.2305 17.707 13.582 17.2969 13.582 16.6172L13.582 7.28906C13.582 6.58594 13.207 6.19922 12.5625 6.19922C12.1055 6.19922 11.7891 6.31641 11.2734 6.66797Z"
              fill="black" fill-opacity="0.85"/>
    </g>
</svg>
