<?xml version="1.0" encoding="UTF-8"?>
<!--Generator: Apple Native CoreSVG 341-->
<!DOCTYPE svg
        PUBLIC "-//W3C//DTD SVG 1.1//EN"
        "http://www.w3.org/Graphics/SVG/1.1/DTD/svg11.dtd">
<svg version="1.1" xmlns="http://www.w3.org/2000/svg"
     viewBox="0 0 24.2578 23.918">
    <g>
        <rect height="23.918" opacity="0" width="24.2578" x="0" y="0"/>
        <path d="M23.9062 11.9531C23.9062 18.5391 18.5508 23.9062 11.9531 23.9062C5.36719 23.9062 0 18.5391 0 11.9531C0 5.35547 5.36719 0 11.9531 0C18.5508 0 23.9062 5.35547 23.9062 11.9531ZM8.36719 8.58984C8.30859 8.77734 8.29688 8.91797 8.29688 9.08203C8.29688 9.55078 8.61328 9.85547 9.09375 9.85547C9.51562 9.85547 9.73828 9.58594 9.94922 9.24609C10.2656 8.51953 10.9102 7.74609 12.0703 7.74609C13.2188 7.74609 13.9805 8.41406 13.9805 9.41016C13.9805 10.2891 13.2422 11.0273 12.5273 11.7773L8.66016 15.9141C8.46094 16.1484 8.34375 16.3945 8.34375 16.6406C8.34375 17.1328 8.67188 17.4375 9.21094 17.4375L15.4219 17.4375C15.9023 17.4375 16.2422 17.1328 16.2422 16.6406C16.2422 16.1367 15.9023 15.8438 15.4219 15.8438L11.0273 15.8438L11.0273 15.7617L13.8867 12.7031C14.9531 11.5664 15.7031 10.6055 15.7031 9.25781C15.7031 7.42969 14.2266 6.19922 11.9883 6.19922C10.2773 6.19922 8.76562 7.24219 8.36719 8.58984Z"
              fill="black" fill-opacity="0.85"/>
    </g>
</svg>
