<?xml version="1.0" encoding="UTF-8"?>
<!--Generator: Apple Native CoreSVG 341-->
<!DOCTYPE svg
        PUBLIC "-//W3C//DTD SVG 1.1//EN"
        "http://www.w3.org/Graphics/SVG/1.1/DTD/svg11.dtd">
<svg version="1.1" xmlns="http://www.w3.org/2000/svg"
     viewBox="0 0 24.2578 23.918">
    <g>
        <rect height="23.918" opacity="0" width="24.2578" x="0" y="0"/>
        <path d="M23.9062 11.9531C23.9062 18.5391 18.5508 23.9062 11.9531 23.9062C5.36719 23.9062 0 18.5391 0 11.9531C0 5.35547 5.36719 0 11.9531 0C18.5508 0 23.9062 5.35547 23.9062 11.9531ZM8.30859 8.54297C8.27344 8.71875 8.26172 8.84766 8.26172 9.02344C8.26172 9.50391 8.60156 9.83203 9.08203 9.83203C9.51562 9.83203 9.77344 9.62109 9.91406 9.19922C10.1836 8.29688 10.9336 7.73438 12.0586 7.73438C13.2656 7.73438 14.0156 8.33203 14.0156 9.30469C14.0156 10.3008 13.1719 11.0273 12.0234 11.0273L11.2617 11.0273C10.8164 11.0273 10.5 11.332 10.5 11.7891C10.5 12.2109 10.8164 12.5273 11.2617 12.5273L12.082 12.5273C13.4414 12.5273 14.3789 13.2773 14.3789 14.3672C14.3789 15.457 13.4297 16.1602 12.0234 16.1602C10.7109 16.1602 9.98438 15.5273 9.69141 14.6953C9.52734 14.2734 9.28125 14.0742 8.85938 14.0742C8.36719 14.0742 8.01562 14.4141 8.01562 14.9062C8.01562 15.082 8.03906 15.1875 8.07422 15.3633C8.4375 16.7578 10.0078 17.707 11.9883 17.707C14.5898 17.707 16.1953 16.3477 16.1953 14.4375C16.1953 13.0195 15.1172 11.8828 13.6523 11.7422L13.6523 11.6484C14.8711 11.4727 15.8086 10.3594 15.8086 9.09375C15.8086 7.40625 14.2617 6.19922 12.0938 6.19922C10.125 6.19922 8.63672 7.11328 8.30859 8.54297Z"
              fill="black" fill-opacity="0.85"/>
    </g>
</svg>
