<?xml version="1.0" encoding="UTF-8"?>
<!--Generator: Apple Native CoreSVG 341-->
<!DOCTYPE svg
PUBLIC "-//W3C//DTD SVG 1.1//EN"
       "http://www.w3.org/Graphics/SVG/1.1/DTD/svg11.dtd">
<svg version="1.1" xmlns="http://www.w3.org/2000/svg" xmlns:xlink="http://www.w3.org/1999/xlink" viewBox="0 0 27.3547 27.1028">
 <g>
  <rect height="27.1028" opacity="0" width="27.3547" x="0" y="0"/>
  <path d="M9.96252 5.95177L17.0406 5.95177C18.0602 5.95177 18.6578 4.92052 17.8961 4.13536L14.3453 0.385365C13.8531-0.141979 13.1383-0.118541 12.6461 0.397084L9.10705 4.13536C8.35705 4.92052 8.9547 5.95177 9.96252 5.95177ZM21.0485 9.99474L21.0485 17.0729C21.0485 18.0924 22.0797 18.6901 22.8766 17.9283L26.6149 14.3893C27.1188 13.8971 27.1422 13.194 26.6266 12.6901L22.8766 9.13927C22.0797 8.38927 21.0485 8.98693 21.0485 9.99474ZM17.0406 21.1158L9.96252 21.1158C8.9547 21.1158 8.35705 22.1471 9.10705 22.9322L12.6578 26.6822C13.1617 27.2096 13.8766 27.1861 14.357 26.6705L17.8961 22.9322C18.6578 22.1471 18.0602 21.1158 17.0406 21.1158ZM5.9547 17.0729L5.9547 9.99474C5.9547 8.98693 4.91173 8.38927 4.12658 9.13927L0.388297 12.6783C-0.115609 13.1705-0.139047 13.8736 0.376578 14.3776L4.12658 17.9283C4.91173 18.6901 5.9547 18.0924 5.9547 17.0729ZM13.5133 23.8815C14.0875 23.8815 14.5563 23.401 14.5563 22.8268L14.5563 4.24083C14.5563 3.66661 14.0875 3.19786 13.5133 3.19786C12.9391 3.19786 12.4586 3.66661 12.4586 4.24083L12.4586 22.8268C12.4586 23.401 12.9391 23.8815 13.5133 23.8815ZM3.17736 13.5338C3.17736 14.108 3.64611 14.5768 4.22033 14.5768L22.8063 14.5768C23.3805 14.5768 23.861 14.108 23.861 13.5338C23.861 12.9596 23.3805 12.4791 22.8063 12.4791L4.22033 12.4791C3.64611 12.4791 3.17736 12.9596 3.17736 13.5338Z" fill="black" fill-opacity="0.85"/>
 </g>
</svg>
