<?xml version="1.0" encoding="UTF-8"?>
<!--Generator: Apple Native CoreSVG 341-->
<!DOCTYPE svg
        PUBLIC "-//W3C//DTD SVG 1.1//EN"
        "http://www.w3.org/Graphics/SVG/1.1/DTD/svg11.dtd">
<svg version="1.1" xmlns="http://www.w3.org/2000/svg"
     viewBox="0 0 24.2578 23.918">
    <g>
        <rect height="23.918" opacity="0" width="24.2578" x="0" y="0"/>
        <path d="M11.9531 23.9062C18.5508 23.9062 23.9062 18.5508 23.9062 11.9531C23.9062 5.35547 18.5508 0 11.9531 0C5.35547 0 0 5.35547 0 11.9531C0 18.5508 5.35547 23.9062 11.9531 23.9062ZM11.9531 21.9141C6.44531 21.9141 1.99219 17.4609 1.99219 11.9531C1.99219 6.44531 6.44531 1.99219 11.9531 1.99219C17.4609 1.99219 21.9141 6.44531 21.9141 11.9531C21.9141 17.4609 17.4609 21.9141 11.9531 21.9141Z"
              fill="black" fill-opacity="0.85"/>
        <path d="M11.9531 6.04688C11.4492 6.04688 11.0273 6.45703 11.0273 6.94922L11.0273 13.5352L11.1094 15.9844C11.1328 16.5117 11.5312 16.793 11.9531 16.793C12.375 16.793 12.7852 16.5117 12.7969 15.9844L12.8906 13.5352L12.8906 6.94922C12.8906 6.45703 12.457 6.04688 11.9531 6.04688ZM11.9531 17.8594C12.1875 17.8594 12.3984 17.7891 12.6328 17.5547L16.4883 13.8281C16.6758 13.6523 16.7695 13.4648 16.7695 13.207C16.7695 12.7266 16.4062 12.3867 15.9141 12.3867C15.6914 12.3867 15.4453 12.4805 15.2812 12.668L13.5 14.5664L11.9531 16.207L11.9531 16.207L10.4062 14.5664L8.625 12.668C8.46094 12.4805 8.20312 12.3867 7.98047 12.3867C7.48828 12.3867 7.13672 12.7266 7.13672 13.207C7.13672 13.4648 7.23047 13.6523 7.40625 13.8281L11.2734 17.5547C11.5078 17.7891 11.7188 17.8594 11.9531 17.8594Z"
              fill="black" fill-opacity="0.85"/>
    </g>
</svg>
