<?xml version="1.0" encoding="UTF-8"?>
<!--Generator: Apple Native CoreSVG 341-->
<!DOCTYPE svg
        PUBLIC "-//W3C//DTD SVG 1.1//EN"
        "http://www.w3.org/Graphics/SVG/1.1/DTD/svg11.dtd">
<svg version="1.1" xmlns="http://www.w3.org/2000/svg"
     viewBox="0 0 36.5156 30.0352">
    <g>
        <rect height="30.0352" opacity="0" width="36.5156" x="0" y="0"/>
        <path d="M27.0139 5.95313L18.8906 5.95312C14.6016 5.95312 12.1406 8.49609 12.1406 12.6914L12.1406 19.0312C12.1406 20.3735 12.3925 21.5467 12.8784 22.5191L10.1484 24.9492C9.44531 25.5703 9.04688 25.875 8.46094 25.875C7.65234 25.875 7.18359 25.3008 7.18359 24.3984L7.18359 21.3398L6.62109 21.3398C3.14062 21.3398 1.25391 19.418 1.25391 15.9844L1.25391 6.99609C1.25391 3.5625 3.14062 1.62891 6.62109 1.62891L21.7148 1.62891C24.8346 1.62891 26.6638 3.17211 27.0139 5.95313Z"
              fill="black" fill-opacity="0.85"/>
        <path d="M18.8906 24.1641L22.6758 24.1641L26.5898 27.5156C27.3047 28.125 27.6914 28.4414 28.2656 28.4414C29.0742 28.4414 29.5312 27.8672 29.5312 26.9766L29.5312 24.1641L29.7656 24.1641C33.1406 24.1641 34.9102 22.3477 34.9102 19.0312L34.9102 12.6914C34.9102 9.36328 33.1406 7.54688 29.7656 7.54688L18.8906 7.54688C15.5156 7.54688 13.7461 9.36328 13.7461 12.6914L13.7461 19.0312C13.7461 22.3594 15.5156 24.1641 18.8906 24.1641Z"
              fill="black" fill-opacity="0.85"/>
    </g>
</svg>
