<?xml version="1.0" encoding="UTF-8"?>
<!--Generator: Apple Native CoreSVG 341-->
<!DOCTYPE svg
        PUBLIC "-//W3C//DTD SVG 1.1//EN"
        "http://www.w3.org/Graphics/SVG/1.1/DTD/svg11.dtd">
<svg version="1.1" xmlns="http://www.w3.org/2000/svg"
     viewBox="0 0 14.5781 17.332">
    <g>
        <rect height="17.332" opacity="0" width="14.5781" x="0" y="0"/>
        <path d="M0.984375 17.3086C1.60547 17.3086 1.91016 17.0742 2.13281 16.418L7.06641 2.61328L7.125 2.61328L12.0703 16.418C12.293 17.0742 12.5977 17.3086 13.207 17.3086C13.8281 17.3086 14.2266 16.9336 14.2266 16.3477C14.2266 16.1484 14.1914 15.9609 14.0977 15.7148L8.60156 1.07812C8.33203 0.363281 7.85156 0 7.10156 0C6.375 0 5.88281 0.351562 5.625 1.06641L0.128906 15.7266C0.0351562 15.9727 0 16.1602 0 16.3594C0 16.9453 0.375 17.3086 0.984375 17.3086ZM3.43359 12.2812L10.793 12.2812C11.2734 12.2812 11.6719 11.8828 11.6719 11.4023C11.6719 10.9102 11.2734 10.5234 10.793 10.5234L3.43359 10.5234C2.95312 10.5234 2.55469 10.9102 2.55469 11.4023C2.55469 11.8828 2.95312 12.2812 3.43359 12.2812Z"
              fill="black" fill-opacity="0.85"/>
    </g>
</svg>
