<?xml version="1.0" encoding="UTF-8"?>
<!--Generator: Apple Native CoreSVG 341-->
<!DOCTYPE svg
PUBLIC "-//W3C//DTD SVG 1.1//EN"
       "http://www.w3.org/Graphics/SVG/1.1/DTD/svg11.dtd">
<svg version="1.1" xmlns="http://www.w3.org/2000/svg" xmlns:xlink="http://www.w3.org/1999/xlink" viewBox="0 0 28.9485 23.918">
 <g>
  <rect height="23.918" opacity="0" width="28.9485" x="0" y="0"/>
  <path d="M27.7633 10.0078L22.3844 10.0078C21.5524 10.0078 21.3414 10.5703 21.7867 11.2148L24.4117 14.9531C24.7867 15.4922 25.3492 15.5039 25.736 14.9531L28.361 11.2266C28.818 10.5703 28.5953 10.0078 27.7633 10.0078ZM14.2985 1.99219C19.8063 1.99219 24.2594 6.44531 24.2594 11.9531C24.2594 12.4922 24.7047 12.9375 25.2672 12.9375C25.8063 12.9375 26.2399 12.5039 26.2516 11.9648C26.2399 5.34375 20.8961 0 14.2985 0C10.7828 0 7.59533 1.52344 5.40392 3.97266C4.92346 4.5 5.08752 5.19141 5.53283 5.49609C5.90783 5.77734 6.41174 5.80078 6.90392 5.27344C8.73205 3.24609 11.3688 1.99219 14.2985 1.99219ZM0.833612 13.8984L6.21252 13.8984C7.04455 13.8984 7.25549 13.3242 6.81017 12.6914L4.18517 8.94141C3.81017 8.41406 3.24767 8.40234 2.86096 8.94141L0.235956 12.6797C-0.221075 13.3242-0.0101376 13.8984 0.833612 13.8984ZM14.2985 21.9141C8.79064 21.9141 4.33752 17.4609 4.33752 11.9531C4.33752 11.4141 3.88049 10.957 3.32971 10.957C2.79064 10.957 2.35705 11.4023 2.34533 11.9414C2.35705 18.5625 7.7008 23.9062 14.2985 23.9062C17.8141 23.9062 21.0016 22.3828 23.193 19.9336C23.6735 19.3945 23.5094 18.7148 23.0641 18.3984C22.6891 18.1289 22.1852 18.1055 21.693 18.6211C19.8649 20.6484 17.2281 21.9141 14.2985 21.9141Z" fill="black" fill-opacity="0.85"/>
  <path d="M14.2985 14.0625C14.8492 14.0625 15.1774 13.7461 15.1891 13.1367L15.3649 6.94922C15.3766 6.35156 14.9078 5.90625 14.2867 5.90625C13.6539 5.90625 13.2086 6.33984 13.2203 6.9375L13.3727 13.1367C13.3844 13.7344 13.7125 14.0625 14.2985 14.0625ZM14.2985 17.8711C14.9664 17.8711 15.5524 17.332 15.5524 16.6523C15.5524 15.9727 14.9781 15.4336 14.2985 15.4336C13.607 15.4336 13.0328 15.9844 13.0328 16.6523C13.0328 17.3203 13.6188 17.8711 14.2985 17.8711Z" fill="black" fill-opacity="0.85"/>
 </g>
</svg>
