<?xml version="1.0" encoding="UTF-8"?>
<!--Generator: Apple Native CoreSVG 341-->
<!DOCTYPE svg
        PUBLIC "-//W3C//DTD SVG 1.1//EN"
        "http://www.w3.org/Graphics/SVG/1.1/DTD/svg11.dtd">
<svg version="1.1" xmlns="http://www.w3.org/2000/svg"
     viewBox="0 0 11.8477 27.7148">
    <g>
        <rect height="27.7148" opacity="0" width="11.8477" x="0" y="0"/>
        <path d="M0 2.70703L11.4961 2.70703L11.4961 2.30859C11.4961 0.75 10.7344 0 9.23438 0L2.25 0C0.75 0 0 0.75 0 2.30859ZM4.65234 27.7031L6.84375 27.7031C8.32031 27.7031 9.10547 26.918 9.10547 25.3945L9.10547 11.8008C9.10547 10.5 9.39844 9.62109 9.86719 8.89453L10.5352 7.85156C11.1094 6.94922 11.4961 6.17578 11.4961 5.13281L11.4961 4.06641L0 4.06641L0 5.13281C0 6.17578 0.386719 6.94922 0.960938 7.85156L1.62891 8.89453C2.09766 9.62109 2.39062 10.5 2.39062 11.8008L2.39062 25.3945C2.39062 26.918 3.17578 27.7031 4.65234 27.7031ZM3.67969 12.9141C3.67969 11.7656 4.58203 10.8516 5.75391 10.8516C6.91406 10.8516 7.81641 11.7656 7.81641 12.9141L7.81641 16.4531C7.81641 17.6133 6.91406 18.5156 5.75391 18.5156C4.58203 18.5156 3.67969 17.6133 3.67969 16.4531ZM5.75391 17.7891C6.52734 17.7891 7.08984 17.2266 7.08984 16.4531C7.08984 15.7266 6.49219 15.1289 5.75391 15.1289C5.00391 15.1289 4.40625 15.7266 4.40625 16.4531C4.40625 17.2266 4.98047 17.7891 5.75391 17.7891Z"
              fill="black" fill-opacity="0.85"/>
    </g>
</svg>
