<?xml version="1.0" encoding="UTF-8"?>
<!--Generator: Apple Native CoreSVG 341-->
<!DOCTYPE svg
PUBLIC "-//W3C//DTD SVG 1.1//EN"
       "http://www.w3.org/Graphics/SVG/1.1/DTD/svg11.dtd">
<svg version="1.1" xmlns="http://www.w3.org/2000/svg" xmlns:xlink="http://www.w3.org/1999/xlink" viewBox="0 0 26.2617 25.5613">
 <g>
  <rect height="25.5613" opacity="0" width="26.2617" x="0" y="0"/>
  <path d="M12.9492 23.9779C13.2422 23.9779 13.5234 23.9662 13.8047 23.9428L14.4492 25.1498C14.6016 25.4545 14.8711 25.5717 15.1992 25.5365C15.5391 25.4779 15.7383 25.2553 15.7734 24.9271L15.9727 23.5678C16.5352 23.4154 17.0625 23.2162 17.5781 22.9818L18.5859 23.8959C18.832 24.1303 19.1367 24.142 19.4297 23.9896C19.7227 23.8256 19.8398 23.5443 19.7695 23.2162L19.4766 21.8803C19.9453 21.5521 20.3789 21.1771 20.7891 20.7904L22.043 21.306C22.3594 21.4232 22.6523 21.3529 22.875 21.0951C23.0977 20.8373 23.1211 20.5443 22.9336 20.2514L22.207 19.1029C22.5234 18.6225 22.8047 18.1303 23.0625 17.6264L24.4102 17.6732C24.75 17.685 25.0078 17.5209 25.125 17.1928C25.2422 16.8881 25.1602 16.5951 24.8906 16.3959L23.8008 15.5639C23.9531 15.0131 24.0469 14.4506 24.1055 13.8646L25.3945 13.4545C25.7227 13.349 25.9102 13.1146 25.9102 12.7748C25.9102 12.435 25.7227 12.1889 25.3945 12.0951L24.1055 11.685C24.0469 11.099 23.9531 10.5365 23.8008 9.98573L24.8789 9.1537C25.1602 8.95448 25.2305 8.66152 25.125 8.34511C25.0078 8.01698 24.75 7.86464 24.4102 7.87636L23.0625 7.91152C22.8047 7.40761 22.5234 6.9037 22.207 6.43495L22.9219 5.29823C23.1094 5.00527 23.0859 4.70058 22.8867 4.44277C22.6523 4.18495 22.3594 4.12636 22.0547 4.24355L20.7891 4.75917C20.3789 4.34902 19.9336 3.98573 19.4766 3.65761L19.7695 2.33339C19.8398 1.99355 19.7227 1.72402 19.4414 1.55995C19.1367 1.38417 18.832 1.43105 18.5859 1.6537L17.5664 2.55605C17.0625 2.32167 16.5234 2.13417 15.9609 1.97011L15.7734 0.622453C15.7383 0.294328 15.5273 0.0833907 15.2109 0.0130782C14.8711-0.0455156 14.6016 0.0951094 14.4492 0.388078L13.8047 1.59511C13.5234 1.58339 13.2422 1.57167 12.9492 1.57167C12.668 1.57167 12.3867 1.58339 12.0938 1.59511L11.4609 0.399797C11.2969 0.0951094 11.0273-0.0337968 10.7109 0.0130782C10.3711 0.0716719 10.1719 0.294328 10.125 0.622453L9.92578 1.97011C9.375 2.13417 8.83594 2.33339 8.32031 2.56777L7.32422 1.6537C7.07812 1.41933 6.77344 1.39589 6.46875 1.55995C6.17578 1.72402 6.07031 2.00527 6.14062 2.33339L6.42188 3.66933C5.95312 3.99745 5.51953 4.36073 5.10938 4.75917L3.85547 4.24355C3.55078 4.11464 3.24609 4.19667 3.02344 4.45448C2.80078 4.70058 2.78906 5.00527 2.97656 5.29823L3.70312 6.44667C3.375 6.91542 3.09375 7.41933 2.84766 7.92323L1.5 7.87636C1.14844 7.85292 0.902344 8.0287 0.785156 8.34511C0.65625 8.66152 0.75 8.95448 1.01953 9.1537L2.09766 9.98573C1.95703 10.5365 1.85156 11.099 1.80469 11.685L0.503906 12.0951C0.175781 12.1889 0 12.435 0 12.7748C0 13.1146 0.175781 13.349 0.503906 13.4545L1.80469 13.8646C1.85156 14.4506 1.95703 15.0131 2.09766 15.5639L1.01953 16.3959C0.75 16.5951 0.679688 16.8881 0.773438 17.2045C0.902344 17.5326 1.14844 17.685 1.48828 17.6732L2.84766 17.6264C3.09375 18.142 3.375 18.6342 3.70312 19.1146L2.97656 20.2514C2.78906 20.5443 2.82422 20.849 3.02344 21.0951C3.25781 21.3646 3.55078 21.4232 3.85547 21.306L5.10938 20.7787C5.51953 21.1889 5.96484 21.5521 6.42188 21.892L6.14062 23.2162C6.07031 23.5443 6.1875 23.8256 6.46875 23.9896C6.77344 24.1654 7.07812 24.1303 7.3125 23.8959L8.33203 22.9818C8.84766 23.2279 9.38672 23.4154 9.9375 23.5678L10.125 24.9154C10.1719 25.2553 10.3828 25.4662 10.6992 25.5365C11.0391 25.5951 11.2969 25.4545 11.4609 25.1498L12.0938 23.9428C12.3867 23.9662 12.668 23.9779 12.9492 23.9779ZM12.9492 22.0326C7.83984 22.0326 3.69141 17.8842 3.69141 12.7748C3.69141 7.6537 7.83984 3.51698 12.9492 3.51698C18.0703 3.51698 22.207 7.6537 22.207 12.7748C22.207 17.8842 18.0703 22.0326 12.9492 22.0326ZM10.9102 10.9818L12.293 10.1029L8.37891 3.38808L6.9375 4.19667ZM15.5625 13.5717L23.3555 13.5717L23.3555 11.9545L15.5625 11.9545ZM12.3164 15.4818L10.9453 14.5912L6.82031 21.3178L8.25 22.1615ZM12.9609 15.8451C14.6602 15.8451 16.0312 14.474 16.0312 12.7748C16.0312 11.0756 14.6602 9.70448 12.9609 9.70448C11.2617 9.70448 9.89062 11.0756 9.89062 12.7748C9.89062 14.474 11.2617 15.8451 12.9609 15.8451ZM12.9609 14.0873C12.2344 14.0873 11.6484 13.5014 11.6484 12.7748C11.6484 12.0482 12.2344 11.4623 12.9609 11.4623C13.6875 11.4623 14.2734 12.0482 14.2734 12.7748C14.2734 13.5014 13.6875 14.0873 12.9609 14.0873Z" fill="black" fill-opacity="0.85"/>
 </g>
</svg>
