<?xml version="1.0" encoding="UTF-8"?>
<!--Generator: Apple Native CoreSVG 341-->
<!DOCTYPE svg
PUBLIC "-//W3C//DTD SVG 1.1//EN"
       "http://www.w3.org/Graphics/SVG/1.1/DTD/svg11.dtd">
<svg version="1.1" xmlns="http://www.w3.org/2000/svg" xmlns:xlink="http://www.w3.org/1999/xlink" viewBox="0 0 16.1602 23.3789">
 <g>
  <rect height="23.3789" opacity="0" width="16.1602" x="0" y="0"/>
  <path d="M1.88672 8.92969L1.88672 3.35156C1.88672 2.41406 2.4375 1.88672 3.43359 1.88672L12.375 1.88672C13.3594 1.88672 13.9219 2.41406 13.9219 3.35156L13.9219 8.92969C13.9219 9.87891 13.3594 10.4062 12.375 10.4062L3.43359 10.4062C2.4375 10.4062 1.88672 9.87891 1.88672 8.92969ZM7.91016 21.0234C5.47266 21.0234 3.48047 19.0547 3.48047 16.6172C3.48047 14.168 5.47266 12.1992 7.91016 12.1992C10.3359 12.1992 12.3281 14.168 12.3281 16.6172C12.3281 19.0547 10.3359 21.0234 7.91016 21.0234ZM7.91016 19.3711C6.375 19.3711 5.13281 18.1289 5.13281 16.6172C5.13281 15.0938 6.375 13.8516 7.91016 13.8516C9.43359 13.8516 10.6641 15.0938 10.6641 16.6172C10.6641 18.1289 9.43359 19.3711 7.91016 19.3711Z" fill="black" fill-opacity="0.2125"/>
  <path d="M0 20.332C0 22.1602 1.27734 23.3789 3.1875 23.3789L12.6094 23.3789C14.5195 23.3789 15.8086 22.1602 15.8086 20.332L15.8086 3.04688C15.8086 1.21875 14.5195 0 12.6094 0L3.1875 0C1.27734 0 0 1.21875 0 3.04688ZM1.88672 8.92969L1.88672 3.35156C1.88672 2.41406 2.4375 1.88672 3.43359 1.88672L12.375 1.88672C13.3594 1.88672 13.9219 2.41406 13.9219 3.35156L13.9219 8.92969C13.9219 9.87891 13.3594 10.4062 12.375 10.4062L3.43359 10.4062C2.4375 10.4062 1.88672 9.87891 1.88672 8.92969ZM7.91016 21.0234C5.47266 21.0234 3.48047 19.0547 3.48047 16.6172C3.48047 14.168 5.47266 12.1992 7.91016 12.1992C10.3359 12.1992 12.3281 14.168 12.3281 16.6172C12.3281 19.0547 10.3359 21.0234 7.91016 21.0234ZM7.91016 19.3711C6.375 19.3711 5.13281 18.1289 5.13281 16.6172C5.13281 15.0938 6.375 13.8516 7.91016 13.8516C9.43359 13.8516 10.6641 15.0938 10.6641 16.6172C10.6641 18.1289 9.43359 19.3711 7.91016 19.3711Z" fill="black" fill-opacity="0.85"/>
 </g>
</svg>
