<?xml version="1.0" encoding="UTF-8"?>
<!--Generator: Apple Native CoreSVG 341-->
<!DOCTYPE svg
PUBLIC "-//W3C//DTD SVG 1.1//EN"
       "http://www.w3.org/Graphics/SVG/1.1/DTD/svg11.dtd">
<svg version="1.1" xmlns="http://www.w3.org/2000/svg" xmlns:xlink="http://www.w3.org/1999/xlink" viewBox="0 0 22.6729 26.7539">
 <g>
  <rect height="26.7539" opacity="0" width="22.6729" x="0" y="0"/>
  <path d="M4.55128 10.0078L4.55128 12.3164C4.55128 16.3125 7.15284 18.9609 11.1607 18.9609C12.3675 18.9609 13.4479 18.7208 14.3655 18.272L15.6096 19.5137C14.5855 20.0933 13.3845 20.4541 12.0513 20.564L12.0513 23.3086L16.3989 23.3086C16.8911 23.3086 17.2778 23.707 17.2778 24.1992C17.2778 24.6914 16.8911 25.0781 16.3989 25.0781L5.92237 25.0781C5.43018 25.0781 5.04346 24.6914 5.04346 24.1992C5.04346 23.707 5.43018 23.3086 5.92237 23.3086L10.2817 23.3086L10.2817 20.5645C5.77478 20.1958 2.78175 16.9696 2.78175 12.3867L2.78175 10.0078C2.78175 9.51562 3.16846 9.12891 3.66065 9.12891C4.15284 9.12891 4.55128 9.51562 4.55128 10.0078ZM8.72066 12.6381C8.92963 13.8856 9.73642 14.6901 10.8863 14.7996L12.4632 16.3734C12.06 16.4951 11.6237 16.5586 11.1607 16.5586C8.64112 16.5586 6.89503 14.6602 6.89503 11.9648L6.89503 10.816ZM19.5513 10.0078L19.5513 12.3867C19.5513 13.806 19.2632 15.0952 18.724 16.2043L17.3714 14.8535C17.6419 14.0934 17.7817 13.241 17.7817 12.3164L17.7817 10.0078C17.7817 9.51562 18.1685 9.12891 18.6607 9.12891C19.1528 9.12891 19.5513 9.51562 19.5513 10.0078ZM15.4263 4.59375L15.4263 11.9648C15.4263 12.2688 15.4042 12.5626 15.3584 12.8431L13.6567 11.1436L13.6567 4.59375C13.6567 2.85938 12.6607 1.74609 11.1607 1.74609C9.66065 1.74609 8.66456 2.85938 8.66456 4.59375L8.66456 6.15788L6.90296 4.39856C6.98109 1.79536 8.70288 0 11.1607 0C13.6919 0 15.4263 1.88672 15.4263 4.59375Z" fill="black" fill-opacity="0.85"/>
  <path d="M19.7739 21.7383C20.1255 22.0898 20.6997 22.0898 21.0513 21.7383C21.3911 21.375 21.4028 20.8125 21.0513 20.4609L2.92237 2.34375C2.57081 2.00391 1.98487 1.99219 1.63331 2.34375C1.29346 2.69531 1.29346 3.28125 1.63331 3.62109Z" fill="black" fill-opacity="0.85"/>
 </g>
</svg>
