<?xml version="1.0" encoding="UTF-8"?>
<!--Generator: Apple Native CoreSVG 341-->
<!DOCTYPE svg
PUBLIC "-//W3C//DTD SVG 1.1//EN"
       "http://www.w3.org/Graphics/SVG/1.1/DTD/svg11.dtd">
<svg version="1.1" xmlns="http://www.w3.org/2000/svg" xmlns:xlink="http://www.w3.org/1999/xlink" viewBox="0 0 17.1211 26.7539">
 <g>
  <rect height="26.7539" opacity="0" width="17.1211" x="0" y="0"/>
  <path d="M8.39062 20.6016C13.3711 20.6016 16.7695 17.2617 16.7695 12.3867L16.7695 10.0078C16.7695 9.51562 16.3828 9.12891 15.8906 9.12891C15.3984 9.12891 15 9.51562 15 10.0078L15 12.3164C15 16.3125 12.3984 18.9609 8.39062 18.9609C4.37109 18.9609 1.76953 16.3125 1.76953 12.3164L1.76953 10.0078C1.76953 9.51562 1.38281 9.12891 0.878906 9.12891C0.386719 9.12891 0 9.51562 0 10.0078L0 12.3867C0 17.2617 3.39844 20.6016 8.39062 20.6016ZM4.125 11.9648C4.125 14.6602 5.85938 16.5586 8.39062 16.5586C10.9102 16.5586 12.6445 14.6602 12.6445 11.9648L12.6445 4.59375C12.6445 1.88672 10.9102 0 8.39062 0C5.85938 0 4.125 1.88672 4.125 4.59375ZM5.89453 11.9648L5.89453 4.59375C5.89453 2.85938 6.89062 1.74609 8.39062 1.74609C9.89062 1.74609 10.875 2.85938 10.875 4.59375L10.875 11.9648C10.875 13.6992 9.89062 14.8125 8.39062 14.8125C6.89062 14.8125 5.89453 13.6992 5.89453 11.9648ZM3.15234 25.0781L13.6172 25.0781C14.1094 25.0781 14.5078 24.6914 14.5078 24.1992C14.5078 23.707 14.1094 23.3086 13.6172 23.3086L3.15234 23.3086C2.66016 23.3086 2.26172 23.707 2.26172 24.1992C2.26172 24.6914 2.66016 25.0781 3.15234 25.0781ZM8.39062 24.6914C8.88281 24.6914 9.26953 24.293 9.26953 23.8008L9.26953 20.2031C9.26953 19.7109 8.88281 19.3125 8.39062 19.3125C7.89844 19.3125 7.5 19.7109 7.5 20.2031L7.5 23.8008C7.5 24.293 7.89844 24.6914 8.39062 24.6914Z" fill="black" fill-opacity="0.85"/>
 </g>
</svg>
