<?xml version="1.0" encoding="UTF-8"?>
<!--Generator: Apple Native CoreSVG 341-->
<!DOCTYPE svg
PUBLIC "-//W3C//DTD SVG 1.1//EN"
       "http://www.w3.org/Graphics/SVG/1.1/DTD/svg11.dtd">
<svg version="1.1" xmlns="http://www.w3.org/2000/svg" xmlns:xlink="http://www.w3.org/1999/xlink" viewBox="0 0 30.0469 20.0977">
 <g>
  <rect height="20.0977" opacity="0" width="30.0469" x="0" y="0"/>
  <path d="M1.96875 20.0977C4.13672 20.0977 7.44141 17.5195 14.8477 17.5195C22.2422 17.5195 25.5703 20.0859 27.7266 20.0859C29.0156 20.0859 29.6953 19.3008 29.6953 18L29.6953 2.12109C29.6953 0.808594 29.0156 0.0234375 27.7266 0.0234375C25.5703 0.0234375 22.2422 2.60156 14.8477 2.60156C7.46484 2.60156 4.13672 0.0234375 1.96875 0.0234375C0.679688 0.0234375 0 0.808594 0 2.10938L0 18.0117C0 19.3125 0.679688 20.0977 1.96875 20.0977ZM2.21484 18.1523C2.00391 18.1523 1.88672 18.0352 1.88672 17.8125L1.88672 2.30859C1.88672 2.08594 2.00391 1.96875 2.21484 1.96875C3.36328 1.96875 7.39453 4.38281 14.8477 4.38281C22.3008 4.38281 26.5898 1.95703 27.4922 1.95703C27.6914 1.95703 27.8086 2.07422 27.8086 2.30859L27.8086 17.8125C27.8086 18.0352 27.6914 18.1523 27.4922 18.1523C26.3438 18.1523 22.3008 15.7383 14.8477 15.7383C7.37109 15.7383 3.11719 18.1523 2.21484 18.1523Z" fill="black" fill-opacity="0.85"/>
 </g>
</svg>
