<?xml version="1.0" encoding="UTF-8"?>
<!--Generator: Apple Native CoreSVG 341-->
<!DOCTYPE svg
        PUBLIC "-//W3C//DTD SVG 1.1//EN"
        "http://www.w3.org/Graphics/SVG/1.1/DTD/svg11.dtd">
<svg version="1.1" xmlns="http://www.w3.org/2000/svg"
     viewBox="0 0 24.2578 23.918">
    <g>
        <rect height="23.918" opacity="0" width="24.2578" x="0" y="0"/>
        <path d="M11.9531 23.9062C18.5508 23.9062 23.9062 18.5508 23.9062 11.9531C23.9062 5.35547 18.5508 0 11.9531 0C5.35547 0 0 5.35547 0 11.9531C0 18.5508 5.35547 23.9062 11.9531 23.9062ZM11.9531 21.9141C6.44531 21.9141 1.99219 17.4609 1.99219 11.9531C1.99219 6.44531 6.44531 1.99219 11.9531 1.99219C17.4609 1.99219 21.9141 6.44531 21.9141 11.9531C21.9141 17.4609 17.4609 21.9141 11.9531 21.9141Z"
              fill="black" fill-opacity="0.85"/>
        <path d="M8.19141 17.0273L15.8789 9.36328L14.4961 7.98047L6.82031 15.6328L6.15234 17.1914C6.03516 17.4844 6.31641 17.7305 6.57422 17.6367ZM16.582 8.67188L17.4258 7.81641C17.8008 7.41797 17.8359 6.99609 17.4844 6.64453L17.2148 6.375C16.8633 6.02344 16.4297 6.05859 16.0547 6.43359L15.1992 7.27734Z"
              fill="black" fill-opacity="0.85"/>
    </g>
</svg>
