<?xml version="1.0" encoding="UTF-8"?>
<!--Generator: Apple Native CoreSVG 341-->
<!DOCTYPE svg
PUBLIC "-//W3C//DTD SVG 1.1//EN"
       "http://www.w3.org/Graphics/SVG/1.1/DTD/svg11.dtd">
<svg version="1.1" xmlns="http://www.w3.org/2000/svg" xmlns:xlink="http://www.w3.org/1999/xlink" viewBox="0 0 34.0195 27.1289">
 <g>
  <rect height="27.1289" opacity="0" width="34.0195" x="0" y="0"/>
  <path d="M12.8717 12.7146C11.9467 13.5836 11.4023 14.8447 11.4023 16.3359C11.4023 19.2305 13.4648 21.2695 16.3359 21.2695L21.4313 21.2695L23.319 23.1562L16.207 23.1562C12.2227 23.1562 9.39844 20.3672 9.39844 16.3359C9.39844 14.2503 10.1588 12.4959 11.452 11.2956ZM33.668 16.3359C33.668 19.4848 31.9377 21.8757 29.2825 22.7644C29.1977 22.6333 29.0968 22.5093 28.9805 22.3945L27.7621 21.1755C30.0864 20.7446 31.6641 18.8675 31.6641 16.3359C31.6641 13.4414 29.6016 11.4141 26.7188 11.4141L25.957 11.4141C26.0273 10.8047 25.9688 10.125 25.8984 9.52734L26.8594 9.52734C30.832 9.52734 33.668 12.3164 33.668 16.3359ZM6.17415 6.02065C3.70661 6.34464 2.00391 8.2674 2.00391 10.8867C2.00391 13.793 4.05469 15.8203 6.9375 15.8203L7.71094 15.8203C7.62891 16.4297 7.6875 17.0977 7.75781 17.707L6.80859 17.707C2.83594 17.707 0 14.918 0 10.8867C0 7.67707 1.80827 5.25199 4.56269 4.41006ZM17.8496 17.6899C17.7237 17.704 17.5929 17.707 17.4609 17.707L13.4766 17.707C13.1133 17.168 13.0547 16.2773 13.2188 15.8203L15.9791 15.8203ZM24.2695 10.8867C24.2695 12.8903 23.569 14.587 22.3755 15.786L20.9507 14.3604C21.7807 13.4985 22.2656 12.2959 22.2656 10.8867C22.2656 8.00391 20.2031 5.96484 17.332 5.96484L12.5596 5.96484L10.6739 4.07813L17.4609 4.07812C21.4336 4.07812 24.2695 6.86719 24.2695 10.8867ZM20.4492 11.4141L18.0059 11.4141L16.1239 9.53101C16.1506 9.52748 16.1788 9.52734 16.207 9.52734L20.1797 9.52734C20.5547 10.0664 20.6133 10.957 20.4492 11.4141Z" fill="black" fill-opacity="0.85"/>
  <path d="M26.7422 24.6328C27.0938 24.9844 27.668 24.9844 28.0078 24.6328C28.3594 24.2812 28.3711 23.707 28.0078 23.3555L6.29297 1.64062C5.94141 1.28906 5.35547 1.27734 5.00391 1.64062C4.66406 1.98047 4.66406 2.56641 5.00391 2.91797Z" fill="black" fill-opacity="0.85"/>
 </g>
</svg>
