<?xml version="1.0" encoding="UTF-8"?>
<!--Generator: Apple Native CoreSVG 341-->
<!DOCTYPE svg
PUBLIC "-//W3C//DTD SVG 1.1//EN"
       "http://www.w3.org/Graphics/SVG/1.1/DTD/svg11.dtd">
<svg version="1.1" xmlns="http://www.w3.org/2000/svg" xmlns:xlink="http://www.w3.org/1999/xlink" viewBox="0 0 45.1523 24.8789">
 <g>
  <rect height="24.8789" opacity="0" width="45.1523" x="0" y="0"/>
  <path d="M44.8008 21.3281C44.8008 22.6406 44.0039 23.2852 42.4102 23.2852L33.7103 23.2852C34.048 22.7905 34.2183 22.2007 34.236 21.5508L42.7031 21.5508C42.9492 21.5508 43.0547 21.457 43.0547 21.2227C43.0547 18.3164 39.7383 15.6094 35.9062 15.6094C34.5547 15.6094 33.2672 15.9461 32.1708 16.5146C31.7983 16.065 31.3657 15.6367 30.88 15.239C32.3075 14.388 34.0385 13.875 35.9062 13.875C40.8164 13.875 44.8008 17.4375 44.8008 21.3281ZM40.3008 7.71094C40.3008 10.3711 38.332 12.5391 35.9062 12.5391C33.5039 12.5391 31.5117 10.3828 31.5117 7.73438C31.5117 5.14453 33.5039 3.01172 35.9062 3.01172C38.3438 3.01172 40.3008 5.10938 40.3008 7.71094ZM33.2578 7.73438C33.2578 9.42188 34.4766 10.793 35.9062 10.793C37.3477 10.793 38.5664 9.42188 38.5664 7.71094C38.5664 6.05859 37.3828 4.75781 35.9062 4.75781C34.4648 4.75781 33.2578 6.08203 33.2578 7.73438Z" fill="black" fill-opacity="0.85"/>
  <path d="M13.9176 15.2403C13.433 15.6375 13.0013 16.0653 12.6294 16.5143C11.5332 15.946 10.2459 15.6094 8.89453 15.6094C5.0625 15.6094 1.74609 18.3164 1.74609 21.2227C1.74609 21.457 1.85156 21.5508 2.09766 21.5508L10.5647 21.5508C10.5825 22.2007 10.7527 22.7905 11.0899 23.2852L2.37891 23.2852C0.796875 23.2852 0 22.6406 0 21.3281C0 17.4375 3.98438 13.875 8.89453 13.875C10.7587 13.875 12.4894 14.3885 13.9176 15.2403ZM13.3008 7.71094C13.3008 10.3711 11.3203 12.5391 8.90625 12.5391C6.49219 12.5391 4.51172 10.3828 4.51172 7.73438C4.51172 5.14453 6.49219 3.01172 8.90625 3.01172C11.3438 3.01172 13.3008 5.10938 13.3008 7.71094ZM6.25781 7.73438C6.25781 9.42188 7.46484 10.793 8.90625 10.793C10.3477 10.793 11.5664 9.42188 11.5664 7.71094C11.5664 6.05859 10.3828 4.75781 8.90625 4.75781C7.45312 4.75781 6.25781 6.08203 6.25781 7.73438Z" fill="black" fill-opacity="0.85"/>
  <path d="M22.4062 12.4336C25.1953 12.4336 27.4688 9.96094 27.4688 6.9375C27.4688 3.9375 25.207 1.58203 22.4062 1.58203C19.6172 1.58203 17.3438 3.98438 17.3438 6.96094C17.3438 9.97266 19.6172 12.4336 22.4062 12.4336ZM22.4062 10.6641C20.6953 10.6641 19.2305 9.03516 19.2305 6.96094C19.2305 4.92188 20.6602 3.35156 22.4062 3.35156C24.1523 3.35156 25.582 4.88672 25.582 6.9375C25.582 9.01172 24.1289 10.6641 22.4062 10.6641ZM15.0352 23.2852L29.7539 23.2852C31.7109 23.2852 32.6367 22.6992 32.6367 21.4102C32.6367 18.3398 28.7578 13.8984 22.3945 13.8984C16.043 13.8984 12.1641 18.3398 12.1641 21.4102C12.1641 22.6992 13.0898 23.2852 15.0352 23.2852ZM14.4727 21.5156C14.168 21.5156 14.0508 21.4336 14.0508 21.1875C14.0508 19.2539 17.0273 15.668 22.3945 15.668C27.7734 15.668 30.75 19.2539 30.75 21.1875C30.75 21.4336 30.6211 21.5156 30.3164 21.5156Z" fill="black" fill-opacity="0.85"/>
 </g>
</svg>
