<?xml version="1.0" encoding="UTF-8"?>
<!--Generator: Apple Native CoreSVG 341-->
<!DOCTYPE svg
        PUBLIC "-//W3C//DTD SVG 1.1//EN"
        "http://www.w3.org/Graphics/SVG/1.1/DTD/svg11.dtd">
<svg version="1.1" xmlns="http://www.w3.org/2000/svg"
     viewBox="0 0 26.1797 25.7461">
    <g>
        <rect height="25.7461" opacity="0" width="26.1797" x="0" y="0"/>
        <path d="M7.20703 25.7461C7.78125 25.7461 8.17969 25.4414 8.89453 24.8086L12.9375 21.2109L20.4609 21.2109C23.9531 21.2109 25.8281 19.2773 25.8281 15.8438L25.8281 6.86719C25.8281 3.43359 23.9531 1.5 20.4609 1.5L5.36719 1.5C1.875 1.5 0 3.42188 0 6.86719L0 15.8438C0 19.2891 1.875 21.2109 5.36719 21.2109L5.92969 21.2109L5.92969 24.2578C5.92969 25.1602 6.38672 25.7461 7.20703 25.7461ZM7.6875 23.6016L7.6875 20.2031C7.6875 19.5703 7.44141 19.3242 6.80859 19.3242L5.36719 19.3242C3 19.3242 1.88672 18.1172 1.88672 15.832L1.88672 6.86719C1.88672 4.58203 3 3.38672 5.36719 3.38672L20.4609 3.38672C22.8164 3.38672 23.9414 4.58203 23.9414 6.86719L23.9414 15.832C23.9414 18.1172 22.8164 19.3242 20.4609 19.3242L12.8672 19.3242C12.2109 19.3242 11.8828 19.418 11.4375 19.875Z"
              fill="black" fill-opacity="0.85"/>
        <path d="M12.6914 13.7812C13.2773 13.7812 13.6289 13.4062 13.6289 12.9492C13.6289 12.9023 13.6289 12.8438 13.6289 12.8086C13.6289 12.1523 14.0156 11.7305 14.8359 11.1914C15.9727 10.4414 16.7812 9.76172 16.7812 8.35547C16.7812 6.41016 15.0469 5.36719 13.0547 5.36719C11.0391 5.36719 9.71484 6.31641 9.38672 7.39453C9.32812 7.58203 9.29297 7.76953 9.29297 7.96875C9.29297 8.49609 9.70312 8.77734 10.1016 8.77734C10.5 8.77734 10.7461 8.58984 10.957 8.30859L11.168 8.02734C11.5781 7.34766 12.1992 6.94922 12.9727 6.94922C14.0508 6.94922 14.7422 7.55859 14.7422 8.44922C14.7422 9.24609 14.25 9.63281 13.2188 10.3477C12.3867 10.9336 11.7539 11.5547 11.7539 12.7031C11.7539 12.75 11.7539 12.8086 11.7539 12.8555C11.7539 13.4648 12.082 13.7812 12.6914 13.7812ZM12.6562 17.2734C13.3359 17.2734 13.9219 16.7461 13.9219 16.0547C13.9219 15.375 13.3477 14.8477 12.6562 14.8477C11.9766 14.8477 11.4023 15.3867 11.4023 16.0547C11.4023 16.7344 11.9883 17.2734 12.6562 17.2734Z"
              fill="black" fill-opacity="0.85"/>
    </g>
</svg>
