<?xml version="1.0" encoding="UTF-8"?>
<!--Generator: Apple Native CoreSVG 341-->
<!DOCTYPE svg
        PUBLIC "-//W3C//DTD SVG 1.1//EN"
        "http://www.w3.org/Graphics/SVG/1.1/DTD/svg11.dtd">
<svg version="1.1" xmlns="http://www.w3.org/2000/svg"
     viewBox="0 0 25.3594 20.8711">
    <g>
        <rect height="20.8711" opacity="0" width="25.3594" x="0" y="0"/>
        <path d="M10.3828 20.1328L10.3828 12.7148C10.3828 12.2344 10.1133 11.9766 9.63281 11.9766C9.41016 11.9766 9.19922 12.0469 9.02344 12.1875L4.59375 15.8555C4.23047 16.1719 4.20703 16.6523 4.59375 16.9688L9.02344 20.6484C9.19922 20.7891 9.41016 20.8711 9.63281 20.8711C10.1133 20.8711 10.3828 20.6016 10.3828 20.1328ZM24.0234 10.0312C23.4609 10.0312 23.0391 10.4648 23.0391 11.0273L23.0391 12.1406C23.0391 14.1445 21.6445 15.457 19.5234 15.457L8.66016 15.457C8.12109 15.457 7.67578 15.9023 7.67578 16.4297C7.67578 16.9688 8.12109 17.4141 8.66016 17.4141L19.3359 17.4141C22.8281 17.4141 25.0078 15.4336 25.0078 12.2812L25.0078 11.0273C25.0078 10.4648 24.5859 10.0312 24.0234 10.0312Z"
              fill="black" fill-opacity="0.85"/>
        <path d="M14.625 0.761719L14.625 8.17969C14.625 8.64844 14.8945 8.91797 15.375 8.91797C15.5977 8.91797 15.8086 8.83594 15.9844 8.69531L20.4141 5.02734C20.7891 4.72266 20.8125 4.24219 20.4141 3.91406L15.9844 0.234375C15.8086 0.09375 15.5977 0.0234375 15.375 0.0234375C14.8945 0.0234375 14.625 0.28125 14.625 0.761719ZM0.984375 10.8633C1.54688 10.8633 1.98047 10.4297 1.98047 9.86719L1.98047 8.75391C1.98047 6.75 3.36328 5.42578 5.48438 5.42578L16.3594 5.42578C16.8867 5.42578 17.332 4.99219 17.332 4.45312C17.332 3.92578 16.8867 3.48047 16.3594 3.48047L5.67188 3.48047C2.19141 3.48047 0 5.44922 0 8.61328L0 9.86719C0 10.4297 0.433594 10.8633 0.984375 10.8633Z"
              fill="black" fill-opacity="0.85"/>
    </g>
</svg>
