<?xml version="1.0" encoding="UTF-8"?>
<!--Generator: Apple Native CoreSVG 341-->
<!DOCTYPE svg
PUBLIC "-//W3C//DTD SVG 1.1//EN"
       "http://www.w3.org/Graphics/SVG/1.1/DTD/svg11.dtd">
<svg version="1.1" xmlns="http://www.w3.org/2000/svg" xmlns:xlink="http://www.w3.org/1999/xlink" viewBox="0 0 25.418 21.5039">
 <g>
  <rect height="21.5039" opacity="0" width="25.418" x="0" y="0"/>
  <path d="M12.1172 1.07812L12.1172 8.49609C12.1172 8.96484 12.3867 9.23438 12.8672 9.23438C13.0781 9.23438 13.3008 9.15234 13.4766 9.01172L17.9062 5.34375C18.2695 5.03906 18.293 4.55859 17.9062 4.23047L13.4766 0.550781C13.3008 0.410156 13.0781 0.339844 12.8672 0.339844C12.3867 0.339844 12.1172 0.597656 12.1172 1.07812ZM0.984375 11.1797C1.54688 11.1797 1.98047 10.7461 1.98047 10.1836L1.98047 9.07031C1.98047 7.06641 3.36328 5.74219 5.48438 5.74219L13.8398 5.74219C14.3789 5.74219 14.8242 5.30859 14.8242 4.76953C14.8242 4.24219 14.3789 3.79688 13.8398 3.79688L5.67188 3.79688C2.19141 3.79688 0 5.76562 0 8.92969L0 10.1836C0 10.7461 0.433594 11.1797 0.984375 11.1797ZM10.3828 20.4492L10.3828 13.0312C10.3828 12.5508 10.1133 12.293 9.63281 12.293C9.41016 12.293 9.19922 12.3633 9.02344 12.5039L4.59375 16.1719C4.23047 16.4883 4.20703 16.9688 4.59375 17.2852L9.02344 20.9648C9.19922 21.1055 9.41016 21.1875 9.63281 21.1875C10.1133 21.1875 10.3828 20.918 10.3828 20.4492ZM24.0234 10.3477C23.4609 10.3477 23.0391 10.7812 23.0391 11.3438L23.0391 12.457C23.0391 14.4609 21.6445 15.7734 19.5234 15.7734L8.66016 15.7734C8.12109 15.7734 7.67578 16.2188 7.67578 16.7461C7.67578 17.2852 8.12109 17.7305 8.66016 17.7305L19.3359 17.7305C22.8281 17.7305 25.0078 15.75 25.0078 12.5977L25.0078 11.3438C25.0078 10.7812 24.5859 10.3477 24.0234 10.3477Z" fill="black" fill-opacity="0.85"/>
  <path d="M24.0352 7.81641C24.6797 7.81641 25.0664 7.41797 25.0664 6.76172L25.0664 1.30078C25.0664 0.515625 24.5508 0 23.8008 0C23.1914 0 22.8164 0.199219 22.3359 0.574219L20.7656 1.76953C20.5195 1.96875 20.4492 2.14453 20.4492 2.37891C20.4492 2.73047 20.7188 3 21.1289 3C21.293 3 21.457 2.95312 21.6094 2.82422L22.8633 1.82812L22.9805 1.82812L22.9805 6.76172C22.9805 7.41797 23.3789 7.81641 24.0352 7.81641Z" fill="black" fill-opacity="0.85"/>
 </g>
</svg>
