<?xml version="1.0" encoding="UTF-8"?>
<!--Generator: Apple Native CoreSVG 341-->
<!DOCTYPE svg
PUBLIC "-//W3C//DTD SVG 1.1//EN"
       "http://www.w3.org/Graphics/SVG/1.1/DTD/svg11.dtd">
<svg version="1.1" xmlns="http://www.w3.org/2000/svg" xmlns:xlink="http://www.w3.org/1999/xlink" viewBox="0 0 28.8281 20.332">
 <g>
  <rect height="20.332" opacity="0" width="28.8281" x="0" y="0"/>
  <path d="M24.9609 13.3477C25.2773 13.7227 25.8398 13.7227 26.2148 13.3008C27.6797 11.6602 28.4766 9.53906 28.4766 7.21875C28.4766 4.89844 27.6797 2.76562 26.2148 1.125C25.8516 0.714844 25.3008 0.714844 24.9844 1.06641C24.6562 1.42969 24.7383 1.88672 25.0898 2.29688C26.2617 3.63281 26.8711 5.34375 26.8711 7.21875C26.8711 9.08203 26.2617 10.8047 25.0898 12.1289C24.7383 12.5391 24.6562 12.9844 24.9609 13.3477Z" fill="black" fill-opacity="0.85"/>
  <path d="M22.2773 10.8164C22.5938 11.1797 23.1914 11.2031 23.543 10.7344C24.293 9.75 24.7383 8.53125 24.7383 7.21875C24.7383 5.90625 24.293 4.67578 23.543 3.70312C23.1914 3.23438 22.6055 3.24609 22.2891 3.60938C21.9492 3.96094 22.0781 4.39453 22.3828 4.81641C22.8867 5.53125 23.1328 6.33984 23.1328 7.21875C23.1328 8.08594 22.8867 8.90625 22.3828 9.62109C22.0898 10.0312 21.9492 10.4648 22.2773 10.8164Z" fill="black" fill-opacity="0.85"/>
  <path d="M3.67969 20.3203L16.3242 20.3203C18.7852 20.3203 20.0039 19.1016 20.0039 16.6875L20.0039 3.63281C20.0039 1.21875 18.7852 0 16.3242 0L3.67969 0C1.23047 0 0 1.20703 0 3.63281L0 16.6875C0 19.1016 1.23047 20.3203 3.67969 20.3203ZM3.70312 18.4336C2.53125 18.4336 1.88672 17.8008 1.88672 16.582L1.88672 3.72656C1.88672 2.51953 2.53125 1.88672 3.70312 1.88672L16.3008 1.88672C17.4492 1.88672 18.1172 2.51953 18.1172 3.72656L18.1172 16.582C18.1172 17.8008 17.4492 18.4336 16.3008 18.4336ZM9.45703 10.6992C9.85547 10.6992 10.1719 10.3945 10.1719 9.99609L10.1719 4.45312C10.1719 4.05469 9.85547 3.75 9.45703 3.75C9.05859 3.75 8.75391 4.05469 8.75391 4.45312L8.75391 9.99609C8.75391 10.3945 9.05859 10.6992 9.45703 10.6992ZM12.4336 10.6992C12.832 10.6992 13.1484 10.3945 13.1484 9.99609L13.1484 4.45312C13.1484 4.05469 12.832 3.75 12.4336 3.75C12.0352 3.75 11.7305 4.05469 11.7305 4.45312L11.7305 9.99609C11.7305 10.3945 12.0352 10.6992 12.4336 10.6992ZM15.4219 10.6992C15.8203 10.6992 16.125 10.3945 16.125 9.99609L16.125 4.45312C16.125 4.05469 15.8203 3.75 15.4219 3.75C15.0234 3.75 14.707 4.05469 14.707 4.45312L14.707 9.99609C14.707 10.3945 15.0234 10.6992 15.4219 10.6992Z" fill="black" fill-opacity="0.85"/>
 </g>
</svg>
