<?xml version="1.0" encoding="UTF-8"?>
<!--Generator: Apple Native CoreSVG 341-->
<!DOCTYPE svg
        PUBLIC "-//W3C//DTD SVG 1.1//EN"
        "http://www.w3.org/Graphics/SVG/1.1/DTD/svg11.dtd">
<svg version="1.1" xmlns="http://www.w3.org/2000/svg"
     viewBox="0 0 27.2812 21.2695">
    <g>
        <rect height="21.2695" opacity="0" width="27.2812" x="0" y="0"/>
        <path d="M20.8594 0.761719L20.8594 8.19141C20.8594 8.66016 21.1289 8.92969 21.6094 8.92969C21.832 8.92969 22.043 8.84766 22.2188 8.70703L26.6484 5.03906C27.0234 4.73438 27.0234 4.25391 26.6484 3.92578L22.2188 0.246094C22.043 0.105469 21.832 0.0351562 21.6094 0.0351562C21.1289 0.0351562 20.8594 0.292969 20.8594 0.761719ZM0 16.6523C0 17.2383 0.433594 17.625 1.07812 17.625L3.75 17.625C5.69531 17.625 6.80859 17.0742 8.22656 15.4336L15.3281 7.14844C16.3359 5.97656 17.1797 5.54297 18.4688 5.54297L22.582 5.54297C23.1211 5.54297 23.5664 5.09766 23.5664 4.57031C23.5664 4.03125 23.1211 3.58594 22.582 3.58594L18.4102 3.58594C16.4531 3.58594 15.3281 4.13672 13.9219 5.77734L6.83203 14.0625C5.8125 15.2461 5.00391 15.6797 3.80859 15.6797L1.07812 15.6797C0.445312 15.6797 0 16.0664 0 16.6523ZM20.8594 20.543C20.8594 21.0117 21.1289 21.2695 21.6094 21.2695C21.832 21.2695 22.043 21.1992 22.2188 21.0586L26.6484 17.3789C27.0234 17.0508 27.0234 16.5703 26.6484 16.2656L22.2188 12.5977C22.043 12.457 21.832 12.375 21.6094 12.375C21.1289 12.375 20.8594 12.6445 20.8594 13.1133ZM0 4.65234C0 5.23828 0.445312 5.625 1.07812 5.625L3.80859 5.625C5.00391 5.625 5.8125 6.05859 6.83203 7.24219L13.9219 15.5273C15.3281 17.168 16.4531 17.7188 18.4102 17.7188L22.582 17.7188C23.1211 17.7188 23.5664 17.2734 23.5664 16.7344C23.5664 16.207 23.1211 15.7617 22.582 15.7617L18.4688 15.7617C17.1797 15.7617 16.3359 15.3281 15.3281 14.1562L8.22656 5.87109C6.80859 4.23047 5.69531 3.67969 3.75 3.67969L1.07812 3.67969C0.433594 3.67969 0 4.06641 0 4.65234Z"
              fill="black" fill-opacity="0.85"/>
    </g>
</svg>
