<?xml version="1.0" encoding="UTF-8"?>
<!--Generator: Apple Native CoreSVG 341-->
<!DOCTYPE svg
        PUBLIC "-//W3C//DTD SVG 1.1//EN"
        "http://www.w3.org/Graphics/SVG/1.1/DTD/svg11.dtd">
<svg version="1.1" xmlns="http://www.w3.org/2000/svg"
     viewBox="0 0 24.2578 23.918">
    <g>
        <rect height="23.918" opacity="0" width="24.2578" x="0" y="0"/>
        <path d="M11.9531 23.9062C18.5508 23.9062 23.9062 18.5508 23.9062 11.9531C23.9062 5.35547 18.5508 0 11.9531 0C5.35547 0 0 5.35547 0 11.9531C0 18.5508 5.35547 23.9062 11.9531 23.9062ZM11.9531 21.9141C6.44531 21.9141 1.99219 17.4609 1.99219 11.9531C1.99219 6.44531 6.44531 1.99219 11.9531 1.99219C17.4609 1.99219 21.9141 6.44531 21.9141 11.9531C21.9141 17.4609 17.4609 21.9141 11.9531 21.9141Z"
              fill="black" fill-opacity="0.85"/>
        <path d="M7.86328 17.0391C8.19141 17.0391 8.4375 16.9102 8.69531 16.6523L16.5703 8.66016C16.8164 8.41406 16.9688 8.12109 16.9688 7.85156C16.9688 7.30078 16.5234 6.87891 15.9844 6.87891C15.7031 6.87891 15.4336 7.00781 15.1758 7.26562L7.3125 15.2578C7.05469 15.5156 6.91406 15.7969 6.91406 16.0781C6.91406 16.6055 7.30078 17.0391 7.86328 17.0391Z"
              fill="black" fill-opacity="0.85"/>
    </g>
</svg>
