<?xml version="1.0" encoding="UTF-8"?>
<!--Generator: Apple Native CoreSVG 341-->
<!DOCTYPE svg
        PUBLIC "-//W3C//DTD SVG 1.1//EN"
        "http://www.w3.org/Graphics/SVG/1.1/DTD/svg11.dtd">
<svg version="1.1" xmlns="http://www.w3.org/2000/svg"
     viewBox="0 0 24.2578 23.918">
    <g>
        <rect height="23.918" opacity="0" width="24.2578" x="0" y="0"/>
        <path d="M23.9062 11.9531C23.9062 18.5391 18.5508 23.9062 11.9531 23.9062C5.36719 23.9062 0 18.5391 0 11.9531C0 5.35547 5.36719 0 11.9531 0C18.5508 0 23.9062 5.35547 23.9062 11.9531ZM8.76562 7.55859C8.01562 7.55859 7.55859 7.99219 7.55859 8.74219L7.55859 15.1641C7.55859 15.9023 8.01562 16.3477 8.76562 16.3477L15.1406 16.3477C15.9023 16.3477 16.3477 15.9023 16.3477 15.1641L16.3477 8.74219C16.3477 7.99219 15.9023 7.55859 15.1406 7.55859Z"
              fill="black" fill-opacity="0.85"/>
    </g>
</svg>
