<?xml version="1.0" encoding="UTF-8"?>
<!--Generator: Apple Native CoreSVG 341-->
<!DOCTYPE svg
PUBLIC "-//W3C//DTD SVG 1.1//EN"
       "http://www.w3.org/Graphics/SVG/1.1/DTD/svg11.dtd">
<svg version="1.1" xmlns="http://www.w3.org/2000/svg" xmlns:xlink="http://www.w3.org/1999/xlink" viewBox="0 0 30.5625 19.2773">
 <g>
  <rect height="19.2773" opacity="0" width="30.5625" x="0" y="0"/>
  <path d="M6.14062 19.2656L18.3867 19.2656C21.2461 19.2656 22.957 17.6016 22.957 14.7422L22.957 4.51172C22.957 1.66406 21.2461 0 18.3867 0L6.14062 0C3.41016 0 1.57031 1.66406 1.57031 4.51172L1.57031 14.7422C1.57031 17.6016 3.28125 19.2656 6.14062 19.2656ZM6.46875 17.4961C4.54688 17.4961 3.45703 16.5 3.45703 14.4727L3.45703 4.79297C3.45703 2.75391 4.54688 1.75781 6.46875 1.75781L18.0586 1.75781C19.9688 1.75781 21.0703 2.75391 21.0703 4.79297L21.0703 14.4727C21.0703 16.5 19.9688 17.4961 18.0586 17.4961ZM22.6875 6.35156L22.6875 8.57812L28.2656 3.97266C28.3711 3.89062 28.4414 3.83203 28.5469 3.83203C28.6875 3.83203 28.7461 3.94922 28.7461 4.11328L28.7461 15.1523C28.7461 15.3164 28.6875 15.4219 28.5469 15.4219C28.4414 15.4219 28.3711 15.3633 28.2656 15.293L22.6875 10.6875L22.6875 12.9023L27.3867 16.8867C27.8555 17.2734 28.3711 17.543 28.8516 17.543C29.8828 17.543 30.5625 16.7812 30.5625 15.6914L30.5625 3.57422C30.5625 2.48438 29.8828 1.72266 28.8516 1.72266C28.3711 1.72266 27.8555 1.99219 27.3867 2.37891Z" fill="black" fill-opacity="0.85"/>
 </g>
</svg>
