<?xml version="1.0" encoding="UTF-8"?>
<!--Generator: Apple Native CoreSVG 341-->
<!DOCTYPE svg
        PUBLIC "-//W3C//DTD SVG 1.1//EN"
        "http://www.w3.org/Graphics/SVG/1.1/DTD/svg11.dtd">
<svg version="1.1" xmlns="http://www.w3.org/2000/svg"
     viewBox="0 0 18.9346 18.5948">
    <g>
        <rect height="18.5948" opacity="0" width="18.9346" x="0" y="0"/>
        <path d="M16.7915 0.326676L0.303239 16.815C-0.0951989 17.2134-0.106918 17.8931 0.303239 18.2915C0.713395 18.69 1.39308 18.69 1.79152 18.2915L18.2798 1.80324C18.6782 1.4048 18.69 0.725114 18.2798 0.326676C17.8696-0.0834802 17.2017-0.0951989 16.7915 0.326676ZM18.2798 16.815L1.79152 0.326676C1.39308-0.0834802 0.701676-0.0951989 0.303239 0.326676C-0.0951989 0.736832-0.0951989 1.4048 0.303239 1.80324L16.7915 18.2915C17.19 18.69 17.8814 18.7017 18.2798 18.2915C18.6782 17.8814 18.6782 17.2134 18.2798 16.815Z"
              fill="black" fill-opacity="0.85"/>
    </g>
</svg>
